<svg width="62" height="64" viewBox="0 0 62 64" fill="none" xmlns="http://www.w3.org/2000/svg">
<g clip-path="url(#clip0_1_2342)">
<path d="M27.5379 32.6769C26.4268 33.54 26.306 34.7238 26.3412 35.8317C26.4113 37.3725 26.6522 38.9264 27.049 40.4044C29.0599 47.1702 33.412 52.2484 39.6622 55.7905C41.2544 56.6856 43.0001 57.3774 44.8671 58.2351C43.4615 59.4667 41.4193 59.6909 39.8949 60.8841C40.6254 61.3315 41.264 61.1166 41.7986 60.9524C43.9892 60.2701 46.1922 59.5497 48.3679 58.7783C49.4099 58.3989 49.6499 57.9284 49.1592 57.0104C48.1631 55.0854 46.6647 53.6302 44.6912 52.696C44.6119 52.6703 44.456 52.7463 44.2085 52.8348C44.1128 54.6172 46.4153 54.9411 46.7503 56.6099C43.819 56.3354 41.3527 55.0306 39.0397 53.5226C36.6203 51.9379 34.3939 50.1626 32.6301 47.9047C30.8937 45.6977 29.7166 43.2502 28.7201 40.6503C27.6717 38.0758 27.3437 35.4394 27.5379 32.6769Z" fill="white"/>
</g>
<path d="M8.41536 8.1079C8.55118 8.12218 8.74853 7.98653 9.00741 7.70095C9.26709 7.40783 9.53212 7.02753 9.80249 6.56007C10.0812 6.08585 10.2432 5.85112 10.2885 5.85588C10.3413 5.86143 10.3645 5.89438 10.3582 5.95475C10.336 6.16603 10.1913 6.49031 9.92407 6.92759C9.19473 8.1326 8.62255 8.7133 8.20755 8.66968C7.86045 8.6332 7.61779 8.54666 7.47956 8.41007C7.41879 8.33502 7.46018 7.61462 7.60372 6.24886L5.73323 6.18959C5.54862 6.56689 5.3791 6.94578 5.22468 7.32626C5.07025 7.70673 4.96942 7.94026 4.92218 8.02684C4.81855 8.21431 4.60828 8.29138 4.29137 8.25807C4.08009 8.23587 3.98397 8.13422 4.003 7.95312C4.02204 7.77203 4.19316 7.523 4.51638 7.20604C4.57633 7.14368 4.78835 6.79596 5.15242 6.16287C5.04599 6.15931 4.94372 6.15238 4.84563 6.14207C4.58153 6.11431 4.46138 5.98725 4.48517 5.76088C4.50659 5.55715 4.62293 5.46639 4.83421 5.48859C4.8493 5.49018 5.06237 5.53164 5.47341 5.61299C5.61435 5.36079 5.76244 5.11316 5.91768 4.87009C7.12346 2.90648 7.91122 1.94411 8.28096 1.98297C8.56014 2.01231 8.61655 3.32661 8.45016 5.92586L8.55202 5.93657C8.60484 5.94212 8.62729 5.98262 8.61936 6.05808C8.61143 6.13353 8.54809 6.19172 8.42936 6.23265C8.34457 7.47489 8.3399 8.09997 8.41536 8.1079ZM5.95416 5.72074C6.83699 5.81353 7.39954 5.86884 7.64179 5.88667C7.64694 5.76515 7.6616 5.55308 7.68577 5.25046C7.70995 4.94784 7.72977 4.68673 7.74522 4.46711C7.76147 4.23995 7.77851 4.00524 7.79634 3.76299C7.82088 3.23917 7.80297 2.97408 7.7426 2.96774C7.6596 2.95902 7.46405 3.1864 7.15595 3.64991C6.84785 4.11341 6.60427 4.5074 6.42521 4.83188C6.17748 5.30173 6.02046 5.59801 5.95416 5.72074ZM10.3691 8.89687C10.2031 8.87942 10.0504 8.8443 9.91099 8.7915C9.77993 8.73195 9.70129 8.68173 9.67507 8.64083C9.60913 8.54235 9.62058 8.07056 9.7094 7.22545C9.79902 6.37279 10.0147 5.22822 10.3564 3.79175C10.6409 2.60865 11.0737 2.04763 11.6547 2.1087C11.7906 2.12297 11.8807 2.20874 11.9252 2.366C11.9705 2.51571 11.986 2.65847 11.9718 2.7943C11.8687 3.77523 11.4552 4.84179 10.7314 5.99398C10.643 6.61789 10.5741 7.16375 10.525 7.63158C10.4766 8.09187 10.4939 8.32637 10.5769 8.33509C10.706 8.34103 10.9 8.20121 11.1588 7.91563C11.4185 7.62251 11.6835 7.24221 11.9539 6.77475C12.2318 6.30807 12.3934 6.07712 12.4387 6.08187C12.4915 6.08743 12.5148 6.12038 12.5084 6.18075C12.4862 6.39203 12.3415 6.71631 12.0743 7.15359C11.345 8.3586 10.7766 8.93969 10.3691 8.89687ZM11.6781 2.86642C11.7035 2.62496 11.686 2.50106 11.6256 2.49471C11.3992 2.47092 11.1345 3.3929 10.8314 5.26066C11.3324 4.26815 11.6146 3.47007 11.6781 2.86642ZM12.3476 9.10482C12.1816 9.08737 12.0289 9.05225 11.8895 8.99945C11.7584 8.9399 11.6798 8.88968 11.6536 8.84878C11.5876 8.7503 11.5991 8.27851 11.6879 7.4334C11.7775 6.58074 11.9932 5.43617 12.3349 3.9997C12.6195 2.8166 13.0522 2.25558 13.6333 2.31665C13.7691 2.33092 13.8592 2.41669 13.9037 2.57395C13.949 2.72366 13.9645 2.86642 13.9503 3.00225C13.8472 3.98318 13.4337 5.04974 12.7099 6.20193C12.6215 6.82584 12.5527 7.3717 12.5035 7.83953C12.4551 8.29982 12.4724 8.53432 12.5554 8.54304C12.6845 8.54898 12.8785 8.40916 13.1374 8.12358C13.397 7.83046 13.6621 7.45016 13.9324 6.9827C14.2103 6.51602 14.3719 6.28507 14.4172 6.28982C14.47 6.29538 14.4933 6.32833 14.4869 6.3887C14.4647 6.59998 14.32 6.92426 14.0528 7.36154C13.3235 8.56655 12.7551 9.14764 12.3476 9.10482ZM13.6566 3.07437C13.682 2.83291 13.6645 2.70901 13.6041 2.70266C13.3778 2.67887 13.113 3.60085 12.8099 5.46861C13.3109 4.4761 13.5932 3.67802 13.6566 3.07437ZM17.0559 6.55571L17.6855 6.55323C17.7459 6.55958 17.7951 6.59908 17.8333 6.67175C17.8714 6.74442 17.8865 6.81848 17.8786 6.89394C17.8706 6.9694 17.8173 7.22317 17.7185 7.65527C17.6272 8.08815 17.5681 8.43287 17.5411 8.68942C17.5149 8.93843 17.5245 9.06531 17.5698 9.07007C17.6988 9.07601 17.8928 8.93619 18.1517 8.65061C18.4114 8.35748 18.6764 7.97719 18.9468 7.50972C19.2247 7.04305 19.3863 6.81209 19.4316 6.81685C19.4844 6.8224 19.5076 6.85536 19.5013 6.91573C19.4791 7.127 19.3344 7.45128 19.0672 7.88857C18.3378 9.09358 17.7694 9.67467 17.3619 9.63185C17.0677 9.60092 16.8514 9.51715 16.7132 9.38056C16.6659 9.32219 16.674 8.99118 16.7375 8.38753C16.8009 7.78388 16.9194 7.27375 17.0928 6.85713C16.6552 6.81113 16.3643 6.63942 16.2201 6.34199C16.1446 6.18911 16.1164 6.02212 16.1354 5.84102C16.1544 5.65993 16.2088 5.50543 16.2986 5.37754C16.3883 5.24965 16.5011 5.19285 16.6369 5.20712C16.7802 5.22219 16.9006 5.31113 16.9979 5.47394C17.1036 5.62999 17.1469 5.79857 17.1279 5.97966C17.1088 6.16076 17.037 6.3363 16.9123 6.50629C16.9401 6.5321 16.988 6.54858 17.0559 6.55571ZM20.0204 9.91127C19.5979 9.86685 19.2788 9.6731 19.0631 9.33002C18.8482 8.97938 18.7621 8.60033 18.805 8.19287C18.8914 7.3704 19.1304 6.76612 19.5219 6.38005C19.9134 5.99398 20.3846 5.82989 20.9354 5.88778C21.192 5.91475 21.3957 6.00864 21.5466 6.16945C21.6984 6.32272 21.7615 6.52009 21.7362 6.76155C21.6886 7.21428 21.4561 7.57511 21.0388 7.84404C20.6298 8.10621 20.1491 8.21589 19.5966 8.17309C19.5959 8.47054 19.667 8.7374 19.81 8.97367C19.9614 9.20319 20.1502 9.32984 20.3766 9.35364C20.603 9.37743 20.8122 9.34602 21.0044 9.25942C21.1966 9.17281 21.3785 9.03935 21.55 8.85902C21.9106 8.47732 22.2318 8.03427 22.5137 7.52987C22.5883 7.4004 22.6439 7.30706 22.6804 7.24987C22.7245 7.19347 22.7654 7.16725 22.8031 7.17122C22.8484 7.17598 22.8679 7.20854 22.8615 7.2689C22.8219 7.64618 22.5322 8.18792 21.9926 8.8941C21.4098 9.64914 20.7524 9.98819 20.0204 9.91127ZM19.6252 7.90145C20.0783 7.87278 20.4178 7.76352 20.6438 7.57365C20.8773 7.38458 21.0118 7.12027 21.0475 6.78072C21.0832 6.44116 20.9917 6.25989 20.7728 6.23689C20.5087 6.20913 20.2667 6.3706 20.0468 6.7213C19.8276 7.06446 19.6871 7.45784 19.6252 7.90145ZM24.0006 6.77068L24.0411 6.60329C24.0554 6.46747 23.9833 6.39123 23.8249 6.37457C23.6739 6.35871 23.5161 6.44511 23.3513 6.63378C23.1873 6.81489 23.0986 6.96959 23.0851 7.09787C23.0716 7.22614 23.0685 7.3288 23.0756 7.40584C23.0828 7.48288 23.0911 7.54861 23.1007 7.60301C23.1186 7.65067 23.1466 7.71083 23.1847 7.7835C23.2228 7.85617 23.2516 7.90878 23.2711 7.94134L23.3789 8.11289C23.4238 8.19389 23.4564 8.24691 23.4767 8.27192C23.9031 7.9887 24.409 7.67568 24.9944 7.33287C25.0269 7.3134 25.0621 7.30565 25.0998 7.30962C25.1752 7.31755 25.2086 7.36301 25.1999 7.44602C25.1912 7.52902 25.1505 7.58959 25.0778 7.62772C24.5624 7.88634 24.0706 8.17414 23.6024 8.49112C23.743 8.75003 23.7983 9.02285 23.7681 9.30958C23.738 9.59631 23.6028 9.83005 23.3626 10.0108C23.1223 10.1915 22.8324 10.264 22.4929 10.2283C22.1533 10.1927 22.0006 10.0126 22.0347 9.68812C22.0593 9.45421 22.346 9.12196 22.8947 8.69138C22.8618 8.64215 22.8014 8.56332 22.7136 8.45492C22.6266 8.33897 22.5599 8.24804 22.5134 8.18212C22.4745 8.117 22.4262 8.03182 22.3686 7.92659C22.2677 7.72526 22.2288 7.51519 22.2518 7.29636C22.2986 6.85117 22.4796 6.50782 22.7949 6.26632C23.111 6.01727 23.4312 5.90979 23.7557 5.94389C23.9594 5.96531 24.1119 6.03855 24.2132 6.16363C24.3153 6.28117 24.3604 6.39653 24.3485 6.50971C24.3215 6.76626 24.2477 6.8882 24.127 6.87551C24.0364 6.86599 23.9943 6.83105 24.0006 6.77068ZM23.0419 8.92428C22.7084 9.19438 22.5317 9.42375 22.5119 9.61239C22.4928 9.79349 22.5776 9.89395 22.7663 9.91378C22.8794 9.92567 22.9785 9.89031 23.0635 9.80769C23.2533 9.59877 23.2461 9.3043 23.0419 8.92428ZM25.6907 10.5072C25.2682 10.4628 24.949 10.2691 24.7333 9.92599C24.5184 9.57535 24.4324 9.1963 24.4752 8.78884C24.5617 7.96637 24.8007 7.36209 25.1922 6.97602C25.5837 6.58995 26.0548 6.42586 26.6057 6.48375C26.8622 6.51072 27.066 6.60461 27.2169 6.76542C27.3686 6.91869 27.4318 7.11606 27.4064 7.35751C27.3588 7.81025 27.1264 8.17108 26.709 8.44001C26.3 8.70218 25.8193 8.81186 25.2669 8.76906C25.2662 9.06651 25.3373 9.33337 25.4803 9.56964C25.6316 9.79916 25.8205 9.92581 26.0469 9.94961C26.2732 9.9734 26.4825 9.94199 26.6747 9.85539C26.8669 9.76878 27.0488 9.63532 27.2203 9.45499C27.5808 9.07329 27.902 8.63024 28.1839 8.12584C28.2586 7.99637 28.3142 7.90303 28.3507 7.84584C28.3948 7.78944 28.4357 7.76322 28.4734 7.76719C28.5187 7.77195 28.5381 7.80451 28.5318 7.86487C28.4921 8.24215 28.2025 8.78389 27.6629 9.49007C27.08 10.2451 26.4226 10.5842 25.6907 10.5072ZM25.2955 8.49742C25.7486 8.46875 26.0881 8.35949 26.314 8.16962C26.5475 7.98055 26.6821 7.71624 26.7178 7.37669C26.7535 7.03713 26.6619 6.85586 26.4431 6.83286C26.179 6.8051 25.937 6.96657 25.717 7.31727C25.4979 7.66043 25.3573 8.05381 25.2955 8.49742ZM30.8063 11.0449C30.512 11.014 30.2958 10.9302 30.1575 10.7936C30.1103 10.7353 30.0977 10.6004 30.1199 10.3891C30.1429 10.1703 30.181 9.88061 30.2342 9.52001C29.9865 9.98985 29.7518 10.3352 29.5302 10.556C29.317 10.7701 29.0595 10.8613 28.7577 10.8296C28.4558 10.7979 28.2064 10.6305 28.0094 10.3275C27.8132 10.017 27.7468 9.55991 27.8102 8.95627C27.8744 8.34507 28.1009 7.8234 28.4897 7.39126C28.8859 6.95992 29.3632 6.77359 29.9216 6.83227C30.1631 6.85765 30.4181 7.04466 30.6866 7.3933C30.7557 7.31664 30.8716 7.22965 31.0344 7.13233C31.2056 7.02825 31.344 6.98177 31.4496 6.99287C31.5628 7.00477 31.6043 7.15408 31.5742 7.44082C31.5662 7.51627 31.5281 7.66103 31.4599 7.8751C31.3991 8.08995 31.3372 8.24365 31.2741 8.3362C31.1879 8.50261 31.0893 9.11401 30.9783 10.1704C30.9569 10.3741 30.9688 10.4784 31.0141 10.4831C31.1432 10.4891 31.3372 10.3492 31.596 10.0637C31.8557 9.77054 32.1207 9.39025 32.3911 8.92278C32.669 8.45611 32.8306 8.22515 32.8759 8.22991C32.9287 8.23546 32.952 8.26842 32.9456 8.32878C32.9234 8.54006 32.7787 8.86434 32.5115 9.30163C31.7822 10.5066 31.2138 11.0877 30.8063 11.0449ZM29.8061 7.27787C29.5948 7.25567 29.3518 7.39033 29.0771 7.68187C28.8106 7.96666 28.6552 8.32032 28.6108 8.74288C28.5664 9.16543 28.5903 9.51888 28.6824 9.80321C28.7822 10.0883 28.9339 10.2416 29.1376 10.263C29.3866 10.2892 29.818 9.70514 30.4318 8.51087C30.4457 8.4513 30.4639 8.35022 30.4866 8.20765C30.5175 8.05832 30.5407 7.94633 30.5562 7.87166C30.501 7.7438 30.3921 7.61792 30.2297 7.49404C30.0756 7.36341 29.9344 7.29135 29.8061 7.27787ZM33.2598 8.25882L33.8894 8.25633C33.9498 8.26268 33.9991 8.30218 34.0372 8.37485C34.0753 8.44752 34.0904 8.52159 34.0825 8.59704C34.0746 8.6725 34.0212 8.92627 33.9224 9.35837C33.8311 9.79126 33.772 10.136 33.745 10.3925C33.7189 10.6415 33.7284 10.7684 33.7737 10.7732C33.9027 10.7791 34.0967 10.6393 34.3556 10.3537C34.6153 10.0606 34.8803 9.68029 35.1507 9.21282C35.4286 8.74615 35.5902 8.51519 35.6355 8.51995C35.6883 8.5255 35.7115 8.55846 35.7052 8.61883C35.683 8.83011 35.5383 9.15439 35.2711 9.59167C34.5417 10.7967 33.9733 11.3778 33.5659 11.3349C33.2716 11.304 33.0553 11.2203 32.9171 11.0837C32.8698 11.0253 32.8779 10.6943 32.9414 10.0906C33.0048 9.48698 33.1233 8.97685 33.2968 8.56023C32.8591 8.51423 32.5682 8.34252 32.424 8.04509C32.3485 7.89221 32.3203 7.72522 32.3393 7.54412C32.3584 7.36303 32.4127 7.20854 32.5025 7.08065C32.5922 6.95275 32.705 6.89595 32.8408 6.91022C32.9842 6.92529 33.1045 7.01423 33.2018 7.17704C33.3075 7.33309 33.3508 7.50167 33.3318 7.68276C33.3127 7.86386 33.2409 8.0394 33.1162 8.2094C33.144 8.2352 33.1919 8.25168 33.2598 8.25882ZM37.1646 8.8752L37.3158 8.30748C37.3245 8.22448 37.306 8.14625 37.2603 8.07279C37.2147 7.99932 37.1503 7.95823 37.0673 7.94951C36.7881 7.92016 36.5245 8.10606 36.2763 8.5072C36.029 8.9008 35.8851 9.29001 35.8446 9.67484C35.8042 10.0597 35.8505 10.3811 35.9836 10.6392C36.1174 10.8898 36.2976 11.027 36.5239 11.0508C36.7578 11.0754 36.9709 11.0444 37.1631 10.9578C37.3553 10.8712 37.5372 10.7377 37.7087 10.5574C38.0692 10.1757 38.3904 9.73262 38.6723 9.22822C38.747 9.09874 38.8025 9.0054 38.8391 8.94821C38.8831 8.89181 38.924 8.86559 38.9618 8.86956C39.007 8.87432 39.0265 8.90688 39.0202 8.96725C38.994 9.21625 38.8759 9.50518 38.6659 9.83404C38.4558 10.1629 38.2805 10.4153 38.14 10.5913C38.0078 10.7605 37.8404 10.9374 37.6379 11.1221C37.2162 11.505 36.7224 11.6667 36.1565 11.6072C35.7264 11.562 35.414 11.3766 35.2193 11.051C35.033 10.7186 34.9581 10.3789 34.9946 10.0318C35.085 9.17159 35.3385 8.53833 35.755 8.132C36.1799 7.71891 36.679 7.54251 37.2525 7.60278C37.494 7.62816 37.6759 7.71212 37.7982 7.85468C37.9289 7.99047 37.9859 8.1376 37.9692 8.29606C37.9383 8.59034 37.8625 8.80361 37.7418 8.93587C37.6211 9.06814 37.4853 9.12634 37.3344 9.11048C37.2061 9.097 37.1495 9.01857 37.1646 8.8752ZM39.0917 11.2406L39.0662 11.5926C39.044 11.8039 38.9725 11.9032 38.8518 11.8905C38.6707 11.8715 38.4995 11.8306 38.3382 11.7679C38.1778 11.6976 38.1019 11.621 38.1107 11.538C38.1202 11.4474 38.1704 11.1514 38.2612 10.6498C38.3604 10.1414 38.4235 9.75898 38.4505 9.50243L38.5195 8.84596C38.7225 6.91428 39.1951 5.72043 39.9373 5.26441C40.1084 5.16033 40.277 5.11702 40.443 5.13447C40.5184 5.1424 40.5852 5.23333 40.6432 5.40726C40.7012 5.5812 40.7163 5.80021 40.6886 6.06431C40.6204 6.71323 40.4471 7.30916 40.1688 7.85208C39.8905 8.395 39.6223 8.80548 39.3642 9.08351C39.3368 9.27136 39.3021 9.56524 39.2601 9.96516C39.295 9.92306 39.4805 9.68316 39.8164 9.24547C40.1523 8.80778 40.4298 8.48983 40.649 8.29163C40.8757 8.09422 41.0683 8.00384 41.2268 8.02049C41.3852 8.03715 41.5193 8.10464 41.6289 8.22297C41.7461 8.34209 41.7963 8.48088 41.7797 8.63934C41.7448 8.97134 41.6555 9.45784 41.5119 10.0988C41.3765 10.7331 41.2998 11.137 41.2815 11.3105C41.2641 11.4765 41.278 11.5619 41.3233 11.5667C41.4523 11.5726 41.6463 11.4328 41.9052 11.1472C42.1649 10.8541 42.4299 10.4738 42.7003 10.0063C42.9782 9.53964 43.1398 9.30869 43.185 9.31344C43.2379 9.319 43.2611 9.35195 43.2548 9.41232C43.2326 9.6236 43.0878 9.94788 42.8206 10.3852C42.0913 11.5902 41.5229 12.1713 41.1154 12.1284C40.8212 12.0975 40.6049 12.0137 40.4667 11.8772C40.4194 11.8188 40.4073 11.6802 40.4303 11.4614C40.4541 11.235 40.511 10.8748 40.6011 10.3807C40.6995 9.87995 40.7618 9.50504 40.788 9.25604C40.8141 9.00703 40.7819 8.87777 40.6914 8.86826C40.6084 8.85953 40.3547 9.09606 39.9302 9.57785C39.5065 10.0521 39.2758 10.3597 39.2381 10.5007C39.1651 10.76 39.1163 11.0067 39.0917 11.2406ZM40.3568 6.2812C40.3901 5.96428 40.3653 5.80146 40.2823 5.79274C40.1464 5.77846 39.9704 6.18336 39.7541 7.00745C39.6394 7.4455 39.536 7.95722 39.4439 8.5426C39.9867 7.66129 40.291 6.90748 40.3568 6.2812ZM46.5822 9.14411L46.6227 8.97671C46.637 8.84089 46.5649 8.76465 46.4065 8.74799C46.2555 8.73213 46.0977 8.81853 45.9329 9.0072C45.7689 9.18831 45.6802 9.34301 45.6667 9.47129C45.6532 9.59956 45.6501 9.70222 45.6572 9.77926C45.6644 9.85631 45.6727 9.92203 45.6823 9.97644C45.7002 10.0241 45.7282 10.0842 45.7663 10.1569C45.8044 10.2296 45.8332 10.2822 45.8527 10.3148L45.9605 10.4863C46.0054 10.5673 46.038 10.6203 46.0583 10.6453C46.4847 10.3621 46.9906 10.0491 47.576 9.70629C47.6085 9.68682 47.6437 9.67907 47.6814 9.68304C47.7568 9.69097 47.7902 9.73644 47.7815 9.81944C47.7728 9.90244 47.7321 9.96301 47.6594 10.0011C47.144 10.2598 46.6522 10.5476 46.184 10.8645C46.3246 11.1234 46.3799 11.3963 46.3497 11.683C46.3196 11.9697 46.1844 12.2035 45.9442 12.3842C45.7039 12.5649 45.414 12.6375 45.0745 12.6018C44.7349 12.5661 44.5822 12.386 44.6163 12.0615C44.6409 11.8276 44.9276 11.4954 45.4763 11.0648C45.4434 11.0156 45.383 10.9367 45.2952 10.8283C45.2082 10.7124 45.1415 10.6215 45.095 10.5555C45.0561 10.4904 45.0078 10.4052 44.9502 10.3C44.8493 10.0987 44.8104 9.88861 44.8334 9.66978C44.8802 9.22459 45.0612 8.88124 45.3765 8.63974C45.6926 8.39069 46.0128 8.28321 46.3373 8.31732C46.541 8.33873 46.6935 8.41198 46.7948 8.53706C46.8969 8.65459 46.942 8.76995 46.9301 8.88314C46.9031 9.13969 46.8293 9.26162 46.7085 9.24893C46.618 9.23941 46.5759 9.20447 46.5822 9.14411ZM45.6235 11.2977C45.29 11.5678 45.1133 11.7972 45.0934 11.9858C45.0744 12.1669 45.1592 12.2674 45.3479 12.2872C45.461 12.2991 45.5601 12.2637 45.6451 12.1811C45.8349 11.9722 45.8277 11.6777 45.6235 11.2977ZM49.6266 11.1005C48.8973 12.3055 48.3251 12.8862 47.9101 12.8426C47.5027 12.7998 47.2664 12.7253 47.2012 12.6193C47.1436 12.5141 47.1438 12.1861 47.2016 11.6352C47.2595 11.0844 47.396 10.2939 47.6111 9.26369C47.2418 9.14858 47.0581 8.97288 47.06 8.73658C47.0727 8.61585 47.1583 8.56381 47.3167 8.58047C47.4752 8.59712 47.6116 8.64198 47.726 8.71503C47.851 8.17889 47.9881 7.63638 48.1374 7.08752C48.1751 6.94654 48.261 6.81825 48.3952 6.70266C48.5295 6.58708 48.6532 6.53523 48.7663 6.54713C48.8644 6.55744 48.8972 6.71728 48.8647 7.02665C48.8496 7.17001 48.7274 7.8247 48.4981 8.99072C48.7058 8.9744 48.9363 8.92234 49.1896 8.83454C49.4505 8.74752 49.6036 8.7064 49.6489 8.71116C49.7847 8.72543 49.8483 8.77407 49.8396 8.85707C49.8392 8.93332 49.6885 9.02429 49.3875 9.12997C49.0872 9.22811 48.7676 9.29369 48.4284 9.3267C48.2221 10.4188 48.0892 11.2479 48.0297 11.8138C47.998 12.1156 48.0274 12.2713 48.1179 12.2808C48.2545 12.2875 48.4523 12.1481 48.7112 11.8625C48.9701 11.577 49.2347 11.2004 49.5051 10.733C49.7838 10.2588 49.9458 10.024 49.991 10.0288C50.0439 10.0343 50.0671 10.0673 50.0608 10.1277C50.0386 10.3389 49.8938 10.6632 49.6266 11.1005ZM52.3489 13.3091C52.0546 13.2782 51.8384 13.1944 51.7001 13.0578C51.6529 12.9995 51.6403 12.8646 51.6625 12.6534C51.6855 12.4345 51.7236 12.1448 51.7768 11.7842C51.529 12.2541 51.2944 12.5994 51.0728 12.8203C50.8596 13.0343 50.6021 13.1255 50.3003 13.0938C49.9984 13.0621 49.749 12.8947 49.552 12.5917C49.3558 12.2812 49.2894 11.8241 49.3528 11.2205C49.417 10.6093 49.6435 10.0876 50.0322 9.65548C50.4285 9.22413 50.9058 9.0378 51.4642 9.09649C51.7057 9.12187 51.9607 9.30888 52.2292 9.65752C52.2983 9.58086 52.4142 9.49387 52.577 9.39655C52.7482 9.29247 52.8866 9.24599 52.9922 9.25709C53.1054 9.26899 53.1469 9.4183 53.1168 9.70503C53.1088 9.78049 53.0707 9.92525 53.0025 10.1393C52.9417 10.3542 52.8798 10.5079 52.8167 10.6004C52.7305 10.7668 52.6319 11.3782 52.5209 12.4346C52.4995 12.6383 52.5114 12.7426 52.5567 12.7473C52.6858 12.7533 52.8797 12.6135 53.1386 12.3279C53.3983 12.0348 53.6633 11.6545 53.9337 11.187C54.2116 10.7203 54.3732 10.4894 54.4185 10.4941C54.4713 10.4997 54.4946 10.5326 54.4882 10.593C54.466 10.8043 54.3213 11.1286 54.0541 11.5658C53.3248 12.7709 52.7564 13.3519 52.3489 13.3091ZM51.3487 9.54209C51.1374 9.51988 50.8944 9.65455 50.6197 9.94609C50.3532 10.2309 50.1978 10.5845 50.1534 11.0071C50.109 11.4297 50.1329 11.7831 50.225 12.0674C50.3248 12.3526 50.4765 12.5058 50.6802 12.5272C50.9292 12.5534 51.3606 11.9694 51.9744 10.7751C51.9883 10.7155 52.0065 10.6144 52.0292 10.4719C52.0601 10.3225 52.0833 10.2105 52.0988 10.1359C52.0436 10.008 51.9347 9.88214 51.7723 9.75826C51.6182 9.62763 51.477 9.55557 51.3487 9.54209ZM54.8024 10.523L55.432 10.5206C55.4924 10.5269 55.5417 10.5664 55.5798 10.6391C55.6179 10.7117 55.633 10.7858 55.6251 10.8613C55.6172 10.9367 55.5638 11.1905 55.465 11.6226C55.3737 12.0555 55.3146 12.4002 55.2876 12.6567C55.2615 12.9057 55.271 13.0326 55.3163 13.0374C55.4453 13.0433 55.6393 12.9035 55.8982 12.6179C56.1579 12.3248 56.4229 11.9445 56.6933 11.477C56.9712 11.0104 57.1328 10.7794 57.1781 10.7842C57.2309 10.7897 57.2541 10.8227 57.2478 10.883C57.2256 11.0943 57.0809 11.4186 56.8137 11.8559C56.0843 13.0609 55.5159 13.642 55.1085 13.5992C54.8142 13.5682 54.5979 13.4845 54.4597 13.3479C54.4124 13.2895 54.4205 12.9585 54.484 12.3549C54.5474 11.7512 54.6659 11.2411 54.8394 10.8245C54.4017 10.7785 54.1108 10.6067 53.9666 10.3093C53.8911 10.1564 53.8629 9.98944 53.8819 9.80834C53.901 9.62725 53.9553 9.47275 54.0451 9.34486C54.1348 9.21697 54.2476 9.16017 54.3834 9.17444C54.5268 9.18951 54.6471 9.27845 54.7444 9.44126C54.8501 9.59731 54.8934 9.76589 54.8744 9.94698C54.8553 10.1281 54.7835 10.3036 54.6588 10.4736C54.6866 10.4994 54.7345 10.5159 54.8024 10.523ZM59.1213 12.0984C58.392 13.3034 57.8198 13.8841 57.4048 13.8405C56.9973 13.7977 56.761 13.7233 56.6959 13.6172C56.6383 13.512 56.6384 13.184 56.6963 12.6332C56.7542 12.0823 56.8907 11.2918 57.1058 10.2616C56.7364 10.1465 56.5527 9.9708 56.5547 9.73451C56.5674 9.61378 56.6529 9.56174 56.8114 9.5784C56.9699 9.59505 57.1063 9.63991 57.2207 9.71296C57.3457 9.17681 57.4828 8.63431 57.632 8.08545C57.6697 7.94447 57.7557 7.81618 57.8899 7.70059C58.0241 7.58501 58.1478 7.53316 58.261 7.54506C58.3591 7.55537 58.3919 7.71521 58.3594 8.02458C58.3443 8.16794 58.2221 8.82263 57.9927 9.98865C58.2004 9.97233 58.431 9.92027 58.6843 9.83247C58.9452 9.74545 59.0983 9.70433 59.1436 9.70909C59.2794 9.72336 59.3429 9.772 59.3342 9.855C59.3338 9.93125 59.1831 10.0222 58.8821 10.1279C58.5819 10.226 58.2622 10.2916 57.9231 10.3246C57.7167 11.4168 57.5838 12.2458 57.5244 12.8117C57.4926 13.1136 57.522 13.2692 57.6126 13.2787C57.7492 13.2855 57.947 13.146 58.2058 12.8605C58.4647 12.5749 58.7294 12.1984 58.9997 11.7309C59.2784 11.2567 59.4404 11.022 59.4857 11.0267C59.5385 11.0323 59.5618 11.0652 59.5554 11.1256C59.5332 11.3369 59.3885 11.6611 59.1213 12.0984ZM16.2222 18.1009C16.64 18.0456 16.9927 17.9568 17.2802 17.8344C17.5752 17.7129 17.7303 17.6529 17.7454 17.6544C17.7907 17.6592 17.8093 17.6993 17.8014 17.7748C17.7935 17.8502 17.7081 17.9366 17.5453 18.0339C17.2038 18.2345 16.7866 18.3929 16.2938 18.5089C16.4115 19.2765 16.4263 20.0791 16.3383 20.9167C16.2645 21.6184 16.1147 22.2817 15.8888 22.9064C15.7602 23.2591 15.5859 23.5383 15.3659 23.744C15.1535 23.9506 14.9077 24.0392 14.6285 24.0098C14.387 23.9845 14.2321 23.8614 14.1638 23.6406C14.0768 23.3797 14.0376 23.1352 14.0463 22.9073C14.061 22.5503 14.1103 21.9718 14.1944 21.172C14.2785 20.3722 14.4403 19.4127 14.68 18.2935C14.429 18.0688 14.3182 17.8168 14.3475 17.5376C14.3776 17.2509 14.461 17.0384 14.5976 16.9002C14.735 16.7544 14.8966 16.6684 15.0825 16.6422C15.2571 15.9968 15.4184 15.4416 15.5665 14.9765C15.7221 14.5123 15.921 14.1441 16.1632 13.872C16.4062 13.5924 16.6333 13.4637 16.8446 13.4859C17.0861 13.5113 17.1787 13.7918 17.1224 14.3276C17.0335 15.1727 16.6205 16.0905 15.8831 17.0811C16.0178 17.3241 16.1308 17.664 16.2222 18.1009ZM15.3705 18.5835C15.205 19.5045 15.0592 20.5648 14.9331 21.7646C14.8062 22.9719 14.8069 23.5823 14.9352 23.5958C15.1616 23.6196 15.3816 23.3413 15.5951 22.7611C15.8079 22.1884 15.9531 21.5323 16.0309 20.7928C16.1078 20.0609 16.1021 19.3165 16.0138 18.5596C15.7811 18.5962 15.5667 18.6041 15.3705 18.5835ZM15.7187 16.9036C15.9756 16.5644 16.2204 16.1591 16.453 15.6877C16.6864 15.2087 16.8206 14.8032 16.8555 14.4712C16.8904 14.1392 16.8739 13.9696 16.806 13.9625C16.6852 13.9498 16.5243 14.2113 16.323 14.7471C16.1293 15.2836 15.9278 16.0025 15.7187 16.9036ZM15.6711 17.3563L15.5913 17.4624L15.474 18.0337C15.569 18.0742 15.6542 18.0984 15.7296 18.1063C15.8126 18.115 15.8809 18.1184 15.9345 18.1164C15.8674 17.8118 15.7796 17.5584 15.6711 17.3563ZM15.0074 16.9204C14.8903 16.9462 14.8246 17.027 14.8103 17.1629C14.796 17.2987 14.8139 17.4188 14.864 17.5232C14.9227 17.2548 14.9705 17.0538 15.0074 16.9204ZM18.1443 17.7307L18.774 17.7282C18.8343 17.7346 18.8836 17.7741 18.9217 17.8467C18.9599 17.9194 18.975 17.9935 18.967 18.0689C18.9591 18.1444 18.9057 18.3982 18.8069 18.8303C18.7156 19.2631 18.6565 19.6079 18.6296 19.8644C18.6034 20.1134 18.6129 20.2403 18.6582 20.2451C18.7873 20.251 18.9813 20.1112 19.2401 19.8256C19.4998 19.5325 19.7648 19.1522 20.0352 18.6847C20.3131 18.218 20.4747 17.9871 20.52 17.9918C20.5728 17.9974 20.5961 18.0304 20.5897 18.0907C20.5675 18.302 20.4228 18.6263 20.1556 19.0636C19.4263 20.2686 18.8579 20.8497 18.4504 20.8068C18.1561 20.7759 17.9399 20.6921 17.8016 20.5556C17.7544 20.4972 17.7625 20.1662 17.8259 19.5625C17.8894 18.9589 18.0078 18.4487 18.1813 18.0321C17.7437 17.9861 17.4527 17.8144 17.3085 17.517C17.233 17.3641 17.2048 17.1971 17.2239 17.016C17.2429 16.8349 17.2973 16.6804 17.387 16.5525C17.4767 16.4246 17.5895 16.3678 17.7253 16.3821C17.8687 16.3972 17.989 16.4861 18.0864 16.6489C18.192 16.805 18.2353 16.9736 18.2163 17.1547C18.1973 17.3358 18.1254 17.5113 18.0007 17.6813C18.0286 17.7071 18.0764 17.7236 18.1443 17.7307ZM23.5348 18.8008C23.8469 18.7344 24.0632 18.6732 24.1835 18.6172C24.3122 18.5544 24.4087 18.5074 24.473 18.476L24.6171 18.411C24.6572 18.3924 24.6886 18.3842 24.7113 18.3866C24.7716 18.3929 24.7982 18.4301 24.7911 18.498C24.784 18.5659 24.6543 18.6743 24.4022 18.8233C24.1508 18.9647 23.8444 19.0851 23.483 19.1844C23.3636 19.8127 23.1097 20.3048 22.7214 20.6607C22.333 21.0166 21.8182 21.1608 21.1768 21.0934C20.709 21.0442 20.37 20.8217 20.1599 20.4258C19.9505 20.0223 19.872 19.5716 19.9243 19.0736C19.9775 18.568 20.1746 18.1081 20.5156 17.6939C20.8643 17.2804 21.2725 17.0982 21.7403 17.1474C21.9675 17.0187 22.2244 16.9694 22.5111 16.9996C22.8054 17.0305 23.0608 17.2137 23.2773 17.5493C23.4938 17.8848 23.5796 18.302 23.5348 18.8008ZM22.7384 19.3007L22.3286 19.2805C21.9815 19.244 21.6979 19.1112 21.4779 18.8821C21.2586 18.6455 21.1621 18.4026 21.1883 18.1536C21.2144 17.9046 21.2785 17.6939 21.3806 17.5216C21.0291 17.744 20.8138 18.2325 20.7345 18.9871C20.6964 19.3493 20.7354 19.7043 20.8514 20.0522C20.9682 20.3925 21.1888 20.5797 21.5133 20.6138C21.8378 20.6479 22.1048 20.5387 22.3145 20.286C22.5249 20.0259 22.6662 19.6974 22.7384 19.3007ZM22.2342 17.3481C22.1134 17.3354 22.0132 17.3821 21.9334 17.4881C21.8544 17.5866 21.8081 17.7 21.7946 17.8283C21.7653 18.1075 21.8358 18.3438 22.0062 18.5371C22.1842 18.7313 22.4014 18.8419 22.658 18.8688L22.7938 18.8831C22.8176 18.5118 22.7887 18.1693 22.7072 17.8555C22.6333 17.5426 22.4756 17.3735 22.2342 17.3481ZM24.8605 20.8054L24.8349 21.1575C24.8127 21.3687 24.7413 21.468 24.6205 21.4553C24.4394 21.4363 24.2683 21.3954 24.107 21.3327C23.9466 21.2624 23.8707 21.1858 23.8794 21.1028C23.8889 21.0123 23.9391 20.7162 24.03 20.2146C24.1292 19.7063 24.1923 19.3238 24.2193 19.0673L24.2894 18.3995C24.3275 18.0373 24.3882 17.8224 24.4716 17.7549C24.555 17.6874 24.6986 17.5918 24.9023 17.4683C25.1135 17.3456 25.2606 17.2885 25.3436 17.2973C25.4342 17.3068 25.4892 17.3278 25.5087 17.3604C25.5281 17.3929 25.5335 17.4507 25.5248 17.5337C25.4827 17.9336 25.3676 18.303 25.1794 18.6418C25.0965 19.0679 25.0463 19.364 25.0289 19.53C25.5073 18.825 25.838 18.3639 26.0211 18.1466C26.3463 17.7383 26.6221 17.5461 26.8484 17.5699C26.9918 17.5849 27.1179 17.6554 27.2267 17.7813C27.3431 17.9079 27.3926 18.0543 27.3751 18.2203C27.3577 18.3863 27.3372 18.5443 27.3138 18.6945C27.2988 18.8378 27.2831 18.9506 27.2668 19.0328C27.2506 19.115 27.2412 19.1675 27.2389 19.1901C27.2754 19.1329 27.4215 18.9766 27.6772 18.7212C27.9329 18.4658 28.1029 18.3006 28.1871 18.2255C28.2788 18.1512 28.3743 18.0774 28.4736 18.0039C28.6653 17.8486 28.8291 17.778 28.965 17.7923C29.1083 17.8074 29.2348 17.8741 29.3445 17.9924C29.4616 18.1115 29.5119 18.2503 29.4952 18.4088C29.4603 18.7408 29.3711 19.2273 29.2274 19.8683C29.0921 20.5025 29.0153 20.9064 28.9971 21.08C28.9796 21.246 28.9935 21.3313 29.0388 21.3361C29.1679 21.342 29.3618 21.2022 29.6207 20.9166C29.8804 20.6235 30.1454 20.2432 30.4158 19.7758C30.6937 19.3091 30.8553 19.0781 30.9006 19.0829C30.9534 19.0884 30.9766 19.1214 30.9703 19.1818C30.9481 19.393 30.8034 19.7173 30.5362 20.1546C29.8069 21.3596 29.2385 21.9407 28.831 21.8979C28.5744 21.8709 28.377 21.7891 28.2388 21.6525C28.1916 21.5942 28.1794 21.4556 28.2024 21.2368C28.2262 21.0104 28.2831 20.6502 28.3732 20.1561C28.4716 19.6553 28.5339 19.2804 28.5601 19.0314C28.5863 18.7824 28.5578 18.6536 28.4748 18.6448C28.3768 18.6345 28.1443 18.7779 27.7774 19.075C27.418 19.3729 27.2199 19.5886 27.1829 19.7221C27.1107 19.9739 27.0298 20.5261 26.9402 21.3787C26.918 21.59 26.8503 21.6897 26.7371 21.6778C26.5635 21.6596 26.3999 21.6195 26.2462 21.5575C26.1008 21.4889 26.0325 21.413 26.0412 21.33C26.0508 21.2395 26.1127 20.8683 26.2269 20.2166C26.3412 19.5649 26.4122 19.107 26.44 18.8429C26.4685 18.5713 26.4375 18.4307 26.347 18.4212C26.264 18.4125 26.0291 18.651 25.6424 19.1367C25.2564 19.6149 25.0339 19.9539 24.9748 20.1537C24.9232 20.3543 24.8851 20.5715 24.8605 20.8054ZM33.2498 21.6872L33.2243 22.0392C33.2021 22.2505 33.1306 22.3498 33.0099 22.3371C32.8288 22.3181 32.6576 22.2772 32.4964 22.2145C32.3359 22.1442 32.26 22.0676 32.2688 21.9846C32.2783 21.894 32.3285 21.5979 32.4193 21.0964C32.5185 20.588 32.5816 20.2056 32.6086 19.949L32.6776 19.2925C32.8806 17.3609 33.3532 16.167 34.0954 15.711C34.2665 15.6069 34.4351 15.5636 34.6011 15.5811C34.6766 15.589 34.7433 15.6799 34.8013 15.8538C34.8593 16.0278 34.8744 16.2468 34.8467 16.5109C34.7785 17.1598 34.6052 17.7557 34.3269 18.2987C34.0486 18.8416 33.7804 19.2521 33.5223 19.5301C33.495 19.7179 33.4603 20.0118 33.4182 20.4117C33.4532 20.3696 33.6386 20.1297 33.9745 19.6921C34.3104 19.2544 34.5879 18.9364 34.8071 18.7382C35.0339 18.5408 35.2264 18.4504 35.3849 18.4671C35.5434 18.4837 35.6774 18.5512 35.787 18.6696C35.9042 18.7887 35.9545 18.9275 35.9378 19.0859C35.9029 19.4179 35.8136 19.9044 35.67 20.5454C35.5347 21.1797 35.4579 21.5836 35.4396 21.7571C35.4222 21.9231 35.4361 22.0085 35.4814 22.0132C35.6104 22.0192 35.8044 21.8794 36.0633 21.5938C36.323 21.3007 36.588 20.9204 36.8584 20.4529C37.1363 19.9862 37.2979 19.7553 37.3432 19.76C37.396 19.7656 37.4192 19.7985 37.4129 19.8589C37.3907 20.0702 37.246 20.3945 36.9788 20.8317C36.2494 22.0368 35.681 22.6178 35.2736 22.575C34.9793 22.5441 34.763 22.4603 34.6248 22.3237C34.5775 22.2654 34.5654 22.1268 34.5884 21.908C34.6122 21.6816 34.6691 21.3214 34.7592 20.8273C34.8576 20.3265 34.9199 19.9516 34.9461 19.7026C34.9722 19.4536 34.9401 19.3244 34.8495 19.3148C34.7665 19.3061 34.5128 19.5426 34.0883 20.0244C33.6647 20.4987 33.434 20.8063 33.3963 20.9473C33.3232 21.2066 33.2744 21.4532 33.2498 21.6872ZM34.5149 16.7278C34.5482 16.4109 34.5234 16.248 34.4404 16.2393C34.3046 16.225 34.1285 16.6299 33.9122 17.454C33.7975 17.8921 33.6941 18.4038 33.6021 18.9892C34.1448 18.1079 34.4491 17.3541 34.5149 16.7278ZM37.8213 22.8428C37.3987 22.7984 37.0796 22.6046 36.8639 22.2615C36.649 21.9109 36.563 21.5319 36.6058 21.1244C36.6922 20.3019 36.9312 19.6977 37.3227 19.3116C37.7142 18.9255 38.1854 18.7614 38.7362 18.8193C38.9928 18.8463 39.1965 18.9402 39.3475 19.101C39.4992 19.2543 39.5624 19.4516 39.537 19.6931C39.4894 20.1458 39.2569 20.5066 38.8396 20.7756C38.4306 21.0377 37.9499 21.1474 37.3975 21.1046C37.3967 21.4021 37.4678 21.6689 37.6108 21.9052C37.7622 22.1347 37.951 22.2614 38.1774 22.2852C38.4038 22.309 38.6131 22.2776 38.8053 22.191C38.9975 22.1043 39.1793 21.9709 39.3509 21.7906C39.7114 21.4089 40.0326 20.9658 40.3145 20.4614C40.3891 20.3319 40.4447 20.2386 40.4812 20.1814C40.5253 20.125 40.5662 20.0988 40.6039 20.1028C40.6492 20.1075 40.6687 20.1401 40.6623 20.2004C40.6227 20.5777 40.3331 21.1194 39.7935 21.8256C39.2106 22.5807 38.5532 22.9197 37.8213 22.8428ZM37.426 20.833C37.8791 20.8043 38.2187 20.695 38.4446 20.5052C38.6781 20.3161 38.8127 20.0518 38.8484 19.7122C38.884 19.3727 38.7925 19.1914 38.5737 19.1684C38.3096 19.1407 38.0675 19.3021 37.8476 19.6528C37.6284 19.996 37.4879 20.3894 37.426 20.833ZM41.0575 20.139L41.6872 20.1365C41.7475 20.1428 41.7968 20.1823 41.8349 20.255C41.873 20.3277 41.8882 20.4017 41.8802 20.4772C41.8723 20.5527 41.8189 20.8064 41.7201 21.2385C41.6288 21.6714 41.5697 22.0161 41.5427 22.2727C41.5166 22.5217 41.5261 22.6486 41.5714 22.6533C41.7005 22.6593 41.8944 22.5195 42.1533 22.2339C42.413 21.9408 42.678 21.5605 42.9484 21.093C43.2263 20.6263 43.3879 20.3954 43.4332 20.4001C43.486 20.4057 43.5092 20.4386 43.5029 20.499C43.4807 20.7103 43.336 21.0345 43.0688 21.4718C42.3395 22.6768 41.7711 23.2579 41.3636 23.2151C41.0693 23.1842 40.8531 23.1004 40.7148 22.9638C40.6676 22.9055 40.6757 22.5744 40.7391 21.9708C40.8025 21.3671 40.921 20.857 41.0945 20.4404C40.6568 20.3944 40.3659 20.2227 40.2217 19.9253C40.1462 19.7724 40.118 19.6054 40.137 19.4243C40.1561 19.2432 40.2105 19.0887 40.3002 18.9608C40.3899 18.8329 40.5027 18.7761 40.6385 18.7904C40.7819 18.8055 40.9022 18.8944 40.9996 19.0572C41.1052 19.2133 41.1485 19.3818 41.1295 19.5629C41.1105 19.744 41.0386 19.9196 40.9139 20.0896C40.9417 20.1154 40.9896 20.1318 41.0575 20.139ZM44.0221 23.4945C43.5995 23.4501 43.2804 23.2564 43.0647 22.9133C42.8498 22.5626 42.7638 22.1836 42.8066 21.7761C42.893 20.9537 43.132 20.3494 43.5235 19.9633C43.915 19.5772 44.3862 19.4132 44.937 19.471C45.1936 19.498 45.3973 19.5919 45.5483 19.7527C45.7 19.906 45.7632 20.1034 45.7378 20.3448C45.6902 20.7975 45.4578 21.1584 45.0404 21.4273C44.6314 21.6895 44.1507 21.7992 43.5983 21.7564C43.5975 22.0538 43.6687 22.3207 43.8117 22.5569C43.963 22.7865 44.1519 22.9131 44.3782 22.9369C44.6046 22.9607 44.8139 22.9293 45.0061 22.8427C45.1983 22.7561 45.3801 22.6226 45.5517 22.4423C45.9122 22.0606 46.2334 21.6175 46.5153 21.1131C46.5899 20.9837 46.6455 20.8903 46.6821 20.8331C46.7261 20.7767 46.767 20.7505 46.8048 20.7545C46.85 20.7592 46.8695 20.7918 46.8632 20.8522C46.8235 21.2294 46.5339 21.7712 45.9943 22.4774C45.4114 23.2324 44.754 23.5715 44.0221 23.4945ZM43.6268 21.4847C44.08 21.456 44.4195 21.3468 44.6454 21.1569C44.8789 20.9678 45.0135 20.7035 45.0492 20.364C45.0849 20.0244 44.9933 19.8432 44.7745 19.8202C44.5104 19.7924 44.2684 19.9539 44.0484 20.3046C43.8292 20.6477 43.6887 21.0411 43.6268 21.4847Z" fill="white"/>
<defs>
<clipPath id="clip0_1_2342">
<rect width="23.0822" height="29.0972" fill="white" transform="matrix(-0.308078 0.951361 0.951361 0.308078 27.042 32.5166)"/>
</clipPath>
</defs>
</svg>
