<svg width="255" height="277" viewBox="0 0 255 277" fill="none" xmlns="http://www.w3.org/2000/svg">
<path d="M202.26 195.281L254.893 221.785C242.064 238.405 225.746 251.701 205.938 261.673C186.319 271.645 165.002 276.631 141.986 276.631C115.953 276.631 92.1832 270.42 70.6773 257.999C49.36 245.578 32.2873 228.958 19.4592 208.139C6.81973 187.146 0.5 163.965 0.5 138.598C0.5 119.354 4.17865 101.422 11.5359 84.8018C18.8932 68.0069 28.9859 53.3113 41.814 40.7152C54.8308 27.944 69.9227 17.9721 87.0897 10.7993C104.257 3.62644 122.556 0.0400391 141.986 0.0400391C165.002 0.0400391 186.319 5.02602 205.938 14.998C225.746 24.9699 242.064 38.3534 254.893 55.1483L202.26 81.6527C194.336 72.9054 185.093 66.2574 174.528 61.7088C163.964 56.9852 153.117 54.6234 141.986 54.6234C126.517 54.6234 112.463 58.5597 99.8235 66.4323C87.3727 74.13 77.4686 84.3644 70.1113 97.1355C62.9427 109.732 59.3583 123.552 59.3583 138.598C59.3583 153.468 63.037 167.289 70.3943 180.06C77.7516 192.656 87.6556 202.803 100.106 210.501C112.746 218.199 126.706 222.048 141.986 222.048C153.683 222.048 164.813 219.598 175.377 214.7C185.942 209.801 194.902 203.328 202.26 195.281Z" fill="white" fill-opacity="0.2"/>
</svg>
