<svg width="110" height="77" viewBox="0 0 110 77" fill="none" xmlns="http://www.w3.org/2000/svg">
<path d="M33.1628 22.2073L33.1958 22.1434C33.21 22.0015 33.0987 21.9036 32.8621 21.8499C32.5758 21.6213 32.2948 21.2618 32.0094 20.7724C31.7874 20.412 31.6156 20.0231 31.4988 19.6163C31.4775 19.5356 31.4682 19.4522 31.471 19.3688C31.4732 19.2983 31.5083 19.2543 31.5655 19.2278C31.6383 19.1902 31.7167 19.1645 31.7977 19.1517L32.0111 19.0876C32.297 18.9553 32.5006 18.8924 32.6326 18.9077C32.7746 18.9219 32.888 19.0395 32.9708 19.2408C33.1142 19.6258 33.4039 19.9744 33.819 20.2788C34.2331 20.5733 34.7251 20.7588 35.2743 20.8276C35.7629 20.8932 36.2207 20.8619 36.6288 20.746C37.0358 20.6202 37.2513 20.3955 37.2939 20.0598C37.3107 19.7372 37.2401 19.416 37.0895 19.1302C37.0784 19.0311 37.0288 18.9465 36.9693 18.8629C36.6351 18.5482 36.3312 18.203 36.0616 17.8316C35.8491 17.725 35.6322 17.5789 35.402 17.4041L34.9693 17.1217C34.5591 16.8392 34.1851 16.5073 33.8559 16.1335C33.4637 15.6761 33.208 15.2736 33.0778 14.9172C32.798 14.5676 32.704 14.0868 32.7848 13.4661C32.8689 12.7849 33.1203 12.1651 33.5204 11.6189C33.955 11.0151 34.4585 10.464 35.0209 9.97681C35.5199 9.46531 36.0836 9.02123 36.6977 8.65585L37.3366 8.18317C37.3608 8.13033 37.3784 8.10831 37.4092 8.11488L37.4774 8.09721C37.5247 8.07186 37.6908 8.03318 37.9636 7.9625C38.2354 7.88192 38.5378 7.71767 38.8633 7.49068C39.8093 7.16407 40.6301 6.97183 41.332 6.88313C42.0538 6.79222 42.6436 6.77626 43.1113 6.83414C43.6748 6.94145 44.167 7.21718 44.5965 7.65033C45.0382 8.10218 45.2609 8.56854 45.268 9.07912C45.2836 9.21775 45.2771 9.3388 45.2662 9.42024C45.1962 9.9595 44.8898 10.5353 44.3765 11.1443C43.8422 11.7456 43.3276 12.1643 42.7886 12.365C42.5819 12.4358 42.3622 12.4605 42.145 12.4372C41.9244 12.4171 41.718 12.3194 41.5626 12.1615C41.5003 12.0905 41.456 12.0056 41.4335 11.9138C41.4111 11.8221 41.411 11.7263 41.4334 11.6346C41.4585 11.481 41.5215 11.3361 41.6167 11.2129C41.7398 11.0588 42.0026 10.8087 42.3863 10.4749C42.9744 9.81745 43.2909 9.33077 43.3247 9.00612C43.3619 8.80141 43.244 8.64417 42.9941 8.56187C42.5522 8.49608 42.1024 8.50581 41.6638 8.59064C40.9387 8.65185 40.5756 8.72261 40.5735 8.79304C40.5757 8.81285 40.5581 8.83487 40.5328 8.87781C40.5362 8.90752 40.5065 8.91085 40.4734 8.88447C40.4118 8.87132 39.9707 9.0511 39.1326 9.44584C38.3142 9.83835 37.8886 10.0665 37.8468 10.1414C37.8238 10.2041 37.7622 10.2812 37.6402 10.3551C37.5467 10.4157 37.4312 10.4587 37.2959 10.504C37.0099 10.6363 36.7394 10.817 36.4854 11.056C36.2436 11.3137 35.9171 11.7113 35.5171 12.2575C35.3016 12.4821 35.1192 12.7332 34.9687 13.0008C34.8292 13.2771 34.737 13.5281 34.713 13.7614C34.6912 13.9242 34.6968 14.064 34.72 14.1817C34.7456 14.4095 34.8712 14.636 35.0959 14.8515C35.3305 15.0659 35.7831 15.4363 36.4537 15.9627C37.1343 16.4881 37.7356 17.0223 38.2698 17.5841C38.8018 18.1261 39.1191 18.5417 39.2118 18.8322C39.3926 19.1929 39.4536 19.6473 39.3837 20.1866C39.329 20.5938 39.2139 20.9977 39.0536 21.3566C38.8821 21.6165 38.6766 21.8401 38.449 22.046C38.2137 22.2729 38.0124 22.3557 37.8583 22.3228C37.7098 22.3394 37.5745 22.3847 37.4689 22.4266C37.3556 22.4894 37.2588 22.5203 37.1818 22.549C36.9992 22.6196 36.5327 22.6619 35.791 22.6648C35.1919 22.6939 34.5914 22.6672 33.9973 22.585L33.1628 22.2073Z" fill="#111111"/>
<path fill-rule="evenodd" clip-rule="evenodd" d="M41.7095 21.7111C41.6786 21.6143 41.564 21.4867 41.3845 21.3163C41.2039 21.136 41.1135 21.0459 41.1102 21.0162C41.0627 20.8165 40.9939 20.6225 40.905 20.4376C40.7992 20.299 40.9386 19.9324 41.2924 19.3313C41.6561 18.729 42.1297 18.0342 42.7 17.2183C42.8023 17.1467 42.9276 17.0123 43.0947 16.8031C43.2738 16.6125 43.3717 16.5013 43.419 16.476C43.4321 16.4143 43.4574 16.3714 43.5036 16.3361C43.5574 16.28 43.6157 16.2634 43.6763 16.2666L43.8905 15.9418C43.9774 15.8218 44.2874 15.5464 44.8614 15.1211C45.4354 14.6958 45.8852 14.4148 46.191 14.2802C46.4946 14.1259 46.7993 14.0717 47.1251 14.1154C47.4718 14.1668 47.7481 14.3063 47.975 14.5416L48.4905 15.1155L49.1437 15.8444L49.8576 16.6669L49.3425 17.7072C49.1536 18.0793 49.0439 18.4426 48.9925 18.7892C48.9237 19.3384 49.0144 19.8797 49.2427 20.3956C49.3012 20.5595 49.3772 20.7014 49.4884 20.7992C49.6008 20.9069 49.7604 20.9893 49.9575 21.0474C50.269 21.1429 50.41 21.3276 50.3684 21.583C50.3247 21.9087 50.2303 22.1399 50.105 22.2743C49.9876 22.408 49.8274 22.4969 49.6518 22.5256L49.1687 22.5095C48.7417 22.4571 48.373 22.2979 48.0525 22.033C47.6902 21.6978 47.4271 21.2694 47.292 20.7947C47.1556 20.475 47.067 20.1369 47.0292 19.7914C46.8509 19.9719 46.6582 20.1377 46.4531 20.2871C44.7641 21.5893 43.4574 22.187 42.5208 22.0613C42.2219 22.0267 41.9397 21.9048 41.7095 21.7111ZM43.1396 20.0668C43.3674 20.1315 43.8558 19.9264 44.5959 19.4624C44.7916 19.3383 44.9845 19.2097 45.1744 19.0767C45.8651 18.7066 46.4888 18.2232 47.0195 17.6467L47.6108 16.9287C47.5529 16.682 47.4485 16.4487 47.3032 16.2412C47.1985 16.1126 47.0895 16.0345 46.9783 16.0269C46.6922 15.9788 46.2963 16.2036 45.7861 16.6619C45.2847 17.1091 44.6615 17.8107 43.9174 18.7764C43.7141 19.0198 43.5515 19.2686 43.4021 19.5461L43.1396 20.0668Z" fill="#111111"/>
<path d="M51.812 20.8498C51.9735 21.7541 52.1225 22.2789 52.2679 22.413C52.3847 22.5603 52.5344 22.6438 52.7171 22.6635C53.1144 22.7192 53.5588 22.5691 54.0679 22.1912C54.2735 21.9677 54.4934 21.7826 54.7178 21.6371L55.1302 21.3803C55.2973 21.2613 55.6205 20.9243 56.124 20.4066C56.6016 19.9417 57.0313 19.43 57.4067 18.8792C57.5353 18.6843 57.6496 18.5411 57.7584 18.4387C58.0267 18.1479 58.1859 17.8694 58.2242 17.5843C58.2388 17.5027 58.2336 17.4187 58.2091 17.3394C58.1845 17.2602 58.1412 17.188 58.0829 17.1289C57.9882 16.9991 57.8307 16.9366 57.6206 16.9401C57.4621 16.9578 57.2158 17.0857 56.8815 17.3237C56.5571 17.5606 56.2921 17.7908 56.0942 17.9935L55.3467 18.7491C54.8155 19.3403 54.2526 19.9022 53.6602 20.4321C53.5767 20.4916 53.5271 20.4971 53.5018 20.4498C53.4739 20.3709 53.4579 20.2882 53.4542 20.2045C53.4409 20.0857 53.4287 19.9767 53.3989 19.8898C53.3922 19.4189 53.3896 18.9479 53.391 18.4769C53.3509 16.7768 53.1783 15.8637 52.88 15.7066C52.7439 15.6761 52.6043 15.6647 52.4651 15.6729C52.2637 15.6654 52.1438 15.6688 52.0789 15.7162C51.9249 15.7735 51.771 15.9211 51.6248 16.138C51.4872 16.3235 51.3978 16.5403 51.3646 16.7688C51.3526 16.8404 51.3527 16.9306 51.366 17.0494C51.4777 17.5984 51.5364 18.033 51.5499 18.3323C51.566 19.1026 51.6603 19.9443 51.812 20.8498Z" fill="#111111"/>
<path fill-rule="evenodd" clip-rule="evenodd" d="M60.2686 24.6548C59.4343 24.5478 58.8057 24.2172 58.3551 23.6861C57.9156 23.1638 57.7477 22.4707 57.8624 21.6156C57.905 21.28 57.9839 20.9101 58.0693 20.5095C58.1516 20.1694 58.3503 19.706 58.6777 19.1379C59.0138 18.5587 59.4535 18.0081 59.957 17.4904C60.6195 16.8151 61.4877 16.3791 62.4251 16.2513C62.622 16.2192 62.8421 16.2146 63.0864 16.2473C63.5883 16.2906 64.0691 16.4688 64.4778 16.7632C64.8291 17.0347 65.0517 17.3206 65.1642 17.6088C65.2877 17.9058 65.3265 18.1621 65.3079 18.3547L65.2883 18.5374C65.2577 18.7113 65.1204 19.0074 64.849 19.4489C64.5864 19.8794 64.1994 20.2738 63.6969 20.6209C63.2153 20.9756 62.6201 21.1226 61.9125 21.0715C61.5658 21.0201 61.2268 20.9478 60.9043 20.8436C60.5906 20.7283 60.3935 20.6702 60.3121 20.6593C60.0975 20.6232 59.9446 20.6904 59.871 20.839C59.7875 20.9888 59.7173 21.2573 59.6693 21.6337C59.6642 22.0354 59.7283 22.339 59.8891 22.5215C60.0499 22.704 60.3141 22.8248 60.6597 22.8663C60.8336 22.897 61.0416 22.8737 61.2836 22.7964C61.5355 22.7181 61.8303 22.5747 62.1877 22.3642C62.3746 22.243 62.5264 22.1658 62.6408 22.1129C62.7604 22.0663 62.8901 22.0518 63.0171 22.0707C63.1503 22.0959 63.2923 22.2003 63.4356 22.4048C63.5876 22.5984 63.6582 22.781 63.6562 22.9416C63.6046 23.1078 63.4013 23.3512 63.0747 23.6585C62.7383 23.967 62.316 24.2249 61.8188 24.441C61.3216 24.6572 60.7979 24.7259 60.2686 24.6548ZM61.7283 19.5179C62.0035 19.5573 62.1927 19.5461 62.2983 19.5042C62.4534 19.4567 62.6965 19.2991 63.0297 19.0512C63.3705 18.7824 63.5596 18.5908 63.5881 18.4873C63.6014 18.4161 63.5951 18.3427 63.5699 18.2749C63.5446 18.2071 63.5013 18.1474 63.4447 18.1023C63.3127 17.9748 63.1462 17.8888 62.9658 17.8551L62.7204 17.8125C62.5377 17.7928 62.2407 17.9164 61.8393 18.1819C61.4467 18.4365 61.1015 18.7559 60.7816 19.1227C60.7905 19.2019 60.8896 19.281 61.0801 19.37C61.2782 19.438 61.4939 19.484 61.7283 19.5179Z" fill="#111111"/>
<path d="M75.5681 27.1413C75.6495 27.1522 75.709 27.1456 75.7662 27.1191C75.8409 27.0706 75.9486 26.868 76.0979 26.5004C76.2088 26.2373 76.3395 25.972 76.4702 25.7066C76.8154 24.8035 77.2083 23.9194 77.6473 23.058C77.8088 22.6374 77.9973 22.2278 78.2118 21.8316C78.4831 21.2998 78.7049 20.8639 78.8443 20.4973L79.9239 18.2306C80.4083 17.2739 80.7323 16.676 80.8938 16.4173C81.0465 16.1696 81.1267 15.9901 81.1354 15.8889C81.1508 15.847 81.1452 15.7975 81.1188 15.7403C81.1252 15.6193 80.9842 15.4346 80.7067 15.1949C80.427 14.9355 80.2508 14.7948 80.1583 14.7751C79.8866 14.7976 79.6199 14.8613 79.3673 14.964C78.9053 15.1361 78.4059 15.3324 77.8713 15.5728L76.6054 16.2662C75.9037 16.6256 75.5364 16.8372 75.4825 16.8934C75.3582 16.9474 75.2163 17.0235 75.0767 17.1193C74.302 17.4791 73.5432 17.8719 72.8022 18.2967C72.6867 18.43 72.6925 18.6599 72.8094 18.9878C72.9363 19.3144 73.0763 19.5795 73.2591 19.7796C73.3142 19.8236 73.3681 19.8576 73.4287 19.8609L73.5871 19.8431C73.6652 19.8243 73.7499 19.7747 73.872 19.7009L74.1271 19.562L74.5418 19.325C74.7343 19.2533 75.0653 19.0759 75.5074 18.8157C75.9309 18.5678 76.2245 18.4145 76.3961 18.3351C77.0198 17.965 77.6763 17.6531 78.3572 17.4034L78.0748 17.8362C77.5376 18.864 77.0362 19.9101 76.5714 20.9726C75.9861 22.2815 75.6302 22.9531 75.5048 22.9973C75.1978 23.6518 74.918 24.3188 74.666 24.9964C74.5046 25.4356 74.4026 25.7779 74.3775 26.0013C74.3498 26.1269 74.3541 26.2574 74.39 26.3809C74.5201 26.6333 74.7338 26.8326 74.9946 26.9449C75.228 27.0591 75.4151 27.1183 75.5681 27.1413ZM84.8818 28.2032C84.8213 28.2 84.7332 28.1296 84.6197 28.012C84.4849 27.8603 84.3857 27.6805 84.3292 27.4856C84.2726 27.2907 84.2603 27.0857 84.2929 26.8855L84.2829 26.7964L84.4596 26.2251C84.6932 25.4469 85.05 24.6047 85.5213 23.7097C85.663 23.4531 85.7366 23.3045 85.7343 23.2847L85.1346 23.3018C84.3523 23.3895 83.8143 23.4197 83.5094 23.3837C83.2801 23.3616 83.0617 23.2748 82.8798 23.1334C82.7062 22.9714 82.5681 22.7752 82.4743 22.5571C82.3323 22.3543 82.2257 22.129 82.1589 21.8906C82.0409 21.5529 81.99 21.2778 82.0283 21.083C82.0293 21.0361 82.0413 20.9901 82.0634 20.9487L82.0743 20.8673C82.1108 20.8227 82.139 20.772 82.1578 20.7176L82.2908 20.5623C82.4908 20.199 82.66 19.9193 82.7984 19.7233C82.9743 19.5031 83.0589 19.3632 83.061 19.2928C83.2137 19.0451 83.7117 18.4779 84.5724 17.5692C85.4343 16.6705 85.995 16.1264 86.2545 15.9369C86.5828 15.8466 86.917 15.779 87.2546 15.7345C87.3977 15.7586 87.5266 15.9247 87.6512 16.2316C87.7846 16.5274 87.8486 16.7409 87.8311 16.8531C87.5353 17.2127 87.2107 17.5475 86.8604 17.8543C86.1701 18.5834 85.5204 19.318 84.9302 20.0459C84.5441 20.4566 84.2342 20.9327 84.0149 21.452C84.0086 21.4841 84.009 21.5172 84.016 21.5492C84.0231 21.5812 84.0366 21.6114 84.0558 21.6379C84.1097 21.672 84.2033 21.7016 84.3563 21.7246C85.165 21.6941 85.7427 21.6594 86.0662 21.5931C86.4216 21.5432 86.6503 21.4374 86.7944 21.2909C86.9494 21.1532 87.1307 20.8922 87.3482 20.5069L87.6822 19.908C88.0887 19.2407 88.4667 18.677 88.825 18.2057C89.1932 17.7332 89.5054 17.3874 89.7395 17.1506C89.9726 16.9039 90.1199 16.7871 90.1606 16.7926C90.2322 16.8046 90.4227 16.9838 90.7223 17.3313C91.0407 17.6666 91.1828 17.8612 91.1895 17.9206C91.1588 18.0945 91.0973 18.2618 91.0028 18.4028C90.6614 18.8839 90.31 19.3578 89.9489 19.8244C88.7075 21.6386 87.5969 23.539 86.6256 25.5111C86.2797 26.2718 86.0985 26.7132 86.0744 26.8563C86.0603 26.9971 86.0797 27.1392 86.1309 27.2711C86.0916 27.5462 85.9367 27.7742 85.6584 27.9758C85.3791 28.1675 85.1261 28.236 84.8818 28.2032Z" fill="#111111"/>
<path fill-rule="evenodd" clip-rule="evenodd" d="M93.4228 22.5537C93.5197 22.613 93.6342 22.6503 93.7872 22.6733C94.0502 22.6939 94.377 22.6573 94.7697 22.5832C95.1614 22.4992 95.5002 22.3911 95.7851 22.2488C96.1492 22.0977 96.4681 21.9016 96.743 21.6702C97.0388 21.4466 97.3851 21.137 97.7534 20.7548C98.4075 20.0959 98.851 19.2575 99.0276 18.346L99.0624 17.941C99.0676 17.6296 98.9716 17.3094 98.7655 16.9916C98.5879 16.6953 98.3397 16.4475 98.043 16.2704C97.9798 16.168 97.9018 16.0753 97.8116 15.9956C97.7528 15.9446 97.679 15.9142 97.6014 15.9088C97.4315 15.9046 97.2616 15.9169 97.0941 15.9456C96.4768 15.9847 95.8971 16.18 95.3264 16.5448C94.9788 16.7542 94.416 17.3688 93.6478 18.3874C93.4291 18.6598 93.2336 18.95 93.0632 19.255C92.8962 19.5545 92.8183 19.7537 92.8283 19.8429C92.8449 19.9914 92.8131 20.0652 92.7415 20.0531C92.7191 20.0839 92.6916 20.1108 92.6602 20.1324C92.6327 20.1556 92.6382 20.2051 92.6856 20.2699L92.6726 20.4218C92.6803 20.4911 92.6496 20.5748 92.6189 20.6585C92.5409 20.8577 92.5577 21.0965 92.6504 21.3869C92.7541 21.6861 92.915 21.9588 93.1364 22.2348C93.2521 22.3723 93.3446 22.4822 93.4228 22.5537ZM96.5574 19.7458C96.3992 19.944 96.1925 20.1577 95.9275 20.3879C95.3579 20.8528 94.9213 21.0722 94.6164 21.0362C94.3622 21.0045 94.2509 20.8165 94.2935 20.4808C94.3165 20.3278 94.3856 20.1396 94.5032 19.9359C94.8515 19.3755 95.1559 18.9603 95.4032 18.6619C95.6516 18.3734 95.9254 18.1321 96.2267 17.958C96.4576 17.7817 96.6798 17.7067 96.9033 17.7318C97.0056 17.7504 97.0893 17.7811 97.1652 17.8327C97.2423 17.8943 97.2502 18.0538 97.2207 18.3279C97.1835 18.5326 97.1364 18.7384 97.0474 18.9289C96.9036 19.2558 96.7344 19.5355 96.5574 19.7458Z" fill="#111111"/>
<path d="M89.7123 30.3295C89.8511 30.4945 90.0449 30.6131 90.2815 30.6668C90.4114 30.6623 90.5742 30.5939 90.7787 30.4507C90.9855 30.3272 91.1547 30.1378 91.2888 29.9022C91.4404 29.6445 91.9043 29.1313 92.6826 28.3823L95.716 25.5657C96.2537 25.1746 96.5363 24.9223 96.5516 24.7903C96.5809 24.7663 96.6082 24.7397 96.6329 24.711C96.6681 24.6669 96.6978 24.6636 96.7297 24.6801C96.8078 24.6613 96.8738 24.6238 96.9178 24.5687L97.0079 24.4784C97.216 24.2806 97.4408 24.101 97.6798 23.9419L98.7849 23.1563C98.9652 22.9756 99.1511 22.8445 99.3006 22.7475C99.3259 22.7046 99.7008 22.3818 100.427 21.7891C101.162 21.1953 101.753 20.7381 102.177 20.4098L102.523 20.1905L102.858 19.9525C103.324 19.6395 103.601 19.428 103.721 19.3343C103.85 19.2297 103.964 19.0865 104.065 18.9148C104.144 18.8042 104.191 18.6739 104.2 18.5383C104.21 18.4028 104.182 18.2672 104.119 18.1466C104.065 18.0021 103.993 17.8653 103.903 17.7397C103.838 17.6494 103.777 17.5558 103.721 17.4593C103.672 17.4187 103.614 17.3908 103.552 17.378C103.492 17.3707 103.431 17.3775 103.374 17.398C103.321 17.3759 103.265 17.3618 103.209 17.3563C103.076 17.341 102.982 17.3917 102.926 17.5183C102.831 17.6593 101.834 18.513 99.9242 20.0807C98.8117 21.0353 97.6629 21.9467 96.4804 22.8129C96.4488 22.8662 96.406 22.9121 96.355 22.9473C96.2891 22.9848 96.2627 23.0178 96.2561 23.0486C96.2203 23.1071 96.1754 23.1595 96.1231 23.2039C96.0582 23.2513 95.9956 23.3185 95.9428 23.3845C95.839 23.3978 95.74 23.4365 95.6546 23.497C95.5622 23.5676 95.4831 23.6667 95.4249 23.7735C95.3859 23.8546 95.3331 23.9284 95.2688 23.9915C95.1952 24.0499 95.1369 24.0664 95.0763 24.0632L95.0356 24.0577L92.8058 25.9921C91.7745 26.8998 91.1731 27.4385 91.0214 27.6059C90.9632 27.7127 90.7653 27.9154 90.4355 28.193C89.899 28.7745 89.6035 29.2688 89.551 29.6958C89.5309 29.8069 89.5349 29.9209 89.5628 30.0302C89.5906 30.1396 89.6416 30.2416 89.7123 30.3295Z" fill="#111111"/>
<path fill-rule="evenodd" clip-rule="evenodd" d="M95.5217 31.0623C95.6098 31.1326 95.7353 31.1787 95.8784 31.2028C96.1414 31.2235 96.4682 31.1869 96.8686 31.0918C97.5981 30.9498 98.2844 30.6395 98.8727 30.1854C99.1575 29.953 99.4851 29.6556 99.8435 29.2745C100.496 28.6184 100.94 27.7836 101.119 26.8755C101.148 26.6917 101.153 26.5509 101.154 26.4705C101.167 26.1382 101.07 25.8181 100.864 25.5003C100.687 25.2039 100.439 24.9561 100.142 24.7791C100.079 24.6766 100.001 24.584 99.9105 24.5042C99.8528 24.4494 99.7784 24.4154 99.6992 24.4076C99.526 24.4065 99.3531 24.4225 99.1831 24.4554C98.5856 24.4922 98.007 24.6975 97.4187 25.0843C97.2009 25.1989 96.9172 25.4413 96.5996 25.8278C96.0737 26.437 95.5932 27.084 95.1621 27.7636C94.9951 28.0631 94.9172 28.2624 94.9272 28.3515C94.9438 28.5 94.9021 28.5749 94.8305 28.5629C94.8108 28.5924 94.7867 28.6188 94.7591 28.641C94.7217 28.6653 94.7371 28.7137 94.7746 28.7797L94.7615 28.9316C94.7693 29.0009 94.7485 29.0834 94.7079 29.1682C94.6288 29.3575 94.6565 29.6051 94.7393 29.8966C94.8965 30.3455 95.1658 30.7468 95.5217 31.0623ZM98.6354 28.2467C98.4694 28.4659 98.2738 28.6884 98.0165 28.8977C97.4568 29.3615 97.0202 29.5809 96.7153 29.5448C96.4501 29.5044 96.3498 29.3251 96.3924 28.9894C96.4142 28.8266 96.4845 28.6482 96.6021 28.4445C96.9504 27.8841 97.2438 27.4602 97.4713 27.164C97.7197 26.8754 97.9934 26.6342 98.2948 26.46C98.5257 26.2837 98.7479 26.2087 98.9713 26.2338C99.0836 26.2513 99.1783 26.2908 99.2641 26.3414C99.3203 26.3952 99.3293 26.5647 99.2822 26.8607C99.2571 27.0841 99.2089 27.2801 99.1463 27.4375C98.9816 27.7567 98.8124 28.0364 98.6354 28.2467Z" fill="#111111"/>
<path d="M16.7525 48.4273C14.0107 49.7469 11.733 50.8187 8.85097 51.0328C7.7968 51.1088 7.50831 52.7193 8.02435 53.3394C8.52982 53.9108 9.00887 54.4919 9.51018 55.0724C11.2006 57.0525 12.8869 59.0417 14.7785 60.7742C15.5614 61.5056 16.5991 60.03 15.9475 59.2273C15.342 58.4676 14.7142 57.7087 14.0865 56.9498C13.3798 56.0999 12.6731 55.25 11.9789 54.373C28.724 61.7709 50.7052 50.348 59.7149 29.6063C59.7979 29.4251 59.8183 29.2372 59.7635 29.0696C59.7462 28.9897 59.7113 28.9147 59.6612 28.85C59.6112 28.7854 59.5473 28.7328 59.4743 28.696C59.3988 28.6647 59.3172 28.6507 59.2356 28.655C59.154 28.6594 59.0743 28.6819 59.0025 28.721C58.8374 28.804 58.7053 28.9405 58.6278 29.1083C48.8079 48.3169 30.5257 57.7188 14.2149 52.6025C15.4162 52.1335 16.5563 51.4393 17.6047 50.5386C17.8304 50.357 17.9994 50.0837 18.0787 49.7912C18.1579 49.4987 18.1473 49.1869 18.0449 48.9318C17.9988 48.8118 17.9287 48.7025 17.839 48.6105C17.7492 48.5185 17.6417 48.4457 17.5229 48.3966C17.3991 48.3492 17.267 48.3275 17.1345 48.3328C17.0021 48.338 16.8721 48.3702 16.7525 48.4273Z" fill="#111111"/>
</svg>
